<?xml version="1.0" standalone="no"?>
<!DOCTYPE svg PUBLIC "-//W3C//DTD SVG 20010904//EN"
 "http://www.w3.org/TR/2001/REC-SVG-20010904/DTD/svg10.dtd">
<svg version="1.0" xmlns="http://www.w3.org/2000/svg"
 width="210.000000pt" height="210.000000pt" viewBox="0 0 210.000000 210.000000"
 preserveAspectRatio="xMidYMid meet">
<metadata>
Created by potrace 1.14, written by Peter Selinger 2001-2017
</metadata>
<g transform="translate(0.000000,210.000000) scale(0.100000,-0.100000)"
fill="#000000" stroke="none">
<path d="M688 1710 c-30 -29 -38 -45 -38 -73 0 -20 5 -39 10 -42 16 -10 12
-17 -30 -65 -118 -132 -168 -293 -136 -434 16 -66 43 -112 99 -164 l44 -39
-18 -34 c-23 -43 -46 -113 -54 -164 -9 -50 -9 -50 -1 -110 8 -66 13 -80 43
-142 25 -50 25 -54 10 -85 -15 -30 -14 -34 0 -51 17 -18 45 -18 95 2 19 7 44
7 75 1 63 -12 370 -5 455 10 58 10 69 10 92 -6 41 -26 104 -35 122 -17 19 19
10 49 -27 86 -16 16 -28 32 -26 35 48 95 64 178 50 269 -9 64 -9 69 11 83 61
43 120 128 109 157 -6 16 -37 17 -65 2 -26 -14 -33 -6 -13 15 9 8 27 41 41 71
33 72 37 157 13 255 -22 86 -88 214 -131 252 -29 25 -29 28 -14 50 34 48 14
122 -40 144 -52 22 -109 10 -152 -32 -27 -26 -38 -31 -52 -24 -27 14 -147 21
-213 11 -52 -7 -60 -6 -75 13 -36 43 -62 59 -104 61 -38 2 -47 -2 -80 -35z"/>
<path d="M1626 1042 c-4 -11 -3 -37 2 -58 14 -68 6 -155 -21 -232 -28 -78 -27
-97 5 -108 26 -8 49 20 80 96 27 69 32 236 8 285 -19 37 -65 47 -74 17z"/>
<path d="M1733 1048 c-11 -14 -10 -26 7 -97 15 -65 6 -154 -23 -225 -26 -63
-22 -91 13 -93 27 -2 56 36 79 105 32 95 28 222 -11 300 -12 24 -49 30 -65 10z"/>
</g>
</svg>
