<?xml version="1.0" standalone="no"?>
<!DOCTYPE svg PUBLIC "-//W3C//DTD SVG 20010904//EN"
 "http://www.w3.org/TR/2001/REC-SVG-20010904/DTD/svg10.dtd">
<svg version="1.0" xmlns="http://www.w3.org/2000/svg"
 width="420.000000pt" height="420.000000pt" viewBox="0 0 420.000000 420.000000"
 preserveAspectRatio="xMidYMid meet">
<metadata>
Created by potrace 1.14, written by Peter Selinger 2001-2017
</metadata>
<g transform="translate(0.000000,420.000000) scale(0.100000,-0.100000)"
fill="#000000" stroke="none">
<path d="M1884 3518 c-3 -4 -9 -6 -13 -4 -14 9 -168 -33 -233 -62 -35 -16 -90
-46 -123 -67 -61 -38 -205 -178 -205 -199 0 -6 -21 -33 -46 -61 -24 -27 -48
-54 -52 -60 -33 -45 -95 -155 -87 -155 3 0 0 -10 -7 -22 -7 -13 -13 -26 -14
-30 -1 -5 -3 -10 -4 -13 -1 -3 -3 -9 -4 -14 0 -5 -4 -13 -8 -17 -5 -4 -8 -18
-8 -31 0 -14 -4 -32 -9 -41 -9 -17 -16 -59 -28 -157 -12 -104 -4 -418 12 -444
1 -4 6 -28 9 -56 4 -27 12 -70 18 -94 9 -34 8 -46 0 -49 -7 -2 -12 -10 -12
-17 0 -7 -5 -15 -11 -17 -12 -4 -15 -101 -6 -168 10 -69 37 -171 56 -210 l19
-40 -108 0 c-104 0 -108 -1 -135 -27 l-27 -28 6 -160 c3 -88 9 -198 12 -245 3
-47 7 -119 9 -160 9 -204 18 -377 20 -390 2 -17 -23 -61 -42 -73 -7 -4 -13
-15 -13 -22 0 -8 -4 -15 -10 -15 -5 0 -10 -7 -10 -15 0 -8 -3 -15 -7 -15 -9 0
-57 -82 -85 -143 -9 -20 -15 -37 -12 -37 3 0 0 -8 -5 -18 -10 -19 -18 -51 -26
-109 l-5 -33 1391 0 1391 0 -7 46 c-12 89 -97 272 -158 341 -25 28 -25 22 -2
453 2 30 6 127 10 215 4 88 9 168 10 177 4 17 7 132 6 181 -1 17 -12 38 -27
52 -25 23 -35 25 -125 25 -100 0 -108 3 -90 38 24 44 39 101 60 233 12 75 -5
179 -29 179 -5 0 -2 24 6 53 45 161 57 220 69 336 4 30 8 57 10 60 9 16 19
126 19 206 0 93 -16 163 -56 252 -11 26 -22 54 -24 61 -1 8 -14 31 -28 53 -14
21 -26 43 -26 48 0 5 -3 11 -7 13 -5 2 -28 28 -53 58 -55 67 -56 68 -100 101
-45 33 -96 48 -149 43 -36 -3 -42 -1 -58 26 -9 17 -20 30 -24 30 -3 0 -12 18
-19 41 -15 44 -64 89 -97 89 -11 0 -30 11 -43 25 -13 14 -29 25 -37 25 -7 0
-13 4 -13 9 0 7 -43 25 -46 18 0 -1 -7 3 -15 10 -8 6 -28 15 -44 19 -43 11
-495 13 -501 2z"/>
</g>
</svg>
